<svg version="1.1" xmlns="http://www.w3.org/2000/svg" xmlns:xlink="http://www.w3.org/1999/xlink" width="1024" height="1024" viewBox="0,0,1024,1024">
	<desc>home icon - Licensed under Iconfu Standard License v1.0 (https://www.iconfu.com/iconfu_standard_license) - Incors GmbH</desc>
	<g fill="none" fill-rule="nonzero" style="mix-blend-mode: normal">
		<path d="M511.59,639h192.82l0.59,0.59v320.41h-194v-320.41z" fill="#ffffff" visibility="hidden"/>
		<path d="M255.59,639h192.82l0.59,0.59v128.82l-0.59,0.59h-192.82l-0.59,-0.59v-128.82z" fill="#ffffff" visibility="hidden"/>
		<path d="M832,609.95v350.05h-128v-320h-192v320h-320v-350.05l320,-320zM256,640v128h192v-128z" fill="#000000"/>
		<path d="M86.63,542.06l402.74,-402.74c12.46,-12.46 32.8,-12.46 45.26,0l402.74,402.74c12.47,12.47 12.47,32.8 0,45.26l-18.74,18.75c-12.47,12.46 -32.79,12.46 -45.26,0l-361.37,-361.38l-361.37,361.38c-12.47,12.46 -32.79,12.46 -45.26,0l-18.74,-18.75c-12.47,-12.46 -12.47,-32.79 0,-45.26z" fill="#000000"/>
	</g>
</svg>